<svg id="Ebene_1" data-name="Ebene 1" xmlns="http://www.w3.org/2000/svg" xmlns:xlink="http://www.w3.org/1999/xlink" viewBox="0 0 1341.89 995.03"><defs><style>.cls-1{fill:url(#Unbenannter_Verlauf_120);}.cls-2{fill:#c12722;}.cls-3{fill:url(#Unbenannter_Verlauf_84);}.cls-4{fill:url(#Unbenannter_Verlauf_84-2);}.cls-5{fill:url(#Unbenannter_Verlauf_84-3);}.cls-6{fill:url(#Unbenannter_Verlauf_84-4);}.cls-7{fill:url(#Unbenannter_Verlauf_84-5);}.cls-8{fill:url(#Unbenannter_Verlauf_84-6);}.cls-9{fill:url(#Unbenannter_Verlauf_84-7);}.cls-10{fill:url(#Unbenannter_Verlauf_84-8);}.cls-11{fill:url(#Unbenannter_Verlauf_84-9);}.cls-12{fill:url(#Unbenannter_Verlauf_84-10);}.cls-13{fill:url(#Unbenannter_Verlauf_84-11);}.cls-14{fill:url(#Unbenannter_Verlauf_84-12);}.cls-15{fill:url(#Unbenannter_Verlauf_125);}.cls-16{fill:#828282;}</style><linearGradient id="Unbenannter_Verlauf_120" x1="673.95" x2="673.95" y2="732.76" gradientUnits="userSpaceOnUse"><stop offset="0" stop-color="#9b9b9b"/><stop offset="1" stop-color="#828282"/></linearGradient><radialGradient id="Unbenannter_Verlauf_84" cx="676.81" cy="130.38" r="32.47" gradientUnits="userSpaceOnUse"><stop offset="0" stop-color="#c73d38"/><stop offset="1" stop-color="#c12722"/></radialGradient><radialGradient id="Unbenannter_Verlauf_84-2" cx="-701.08" cy="429.5" r="32.47" gradientTransform="translate(950.83 -561.92) rotate(-30)" xlink:href="#Unbenannter_Verlauf_84"/><radialGradient id="Unbenannter_Verlauf_84-3" cx="-2043.92" cy="-0.4" r="32.47" gradientTransform="translate(1493.31 -1523.98) rotate(-60)" xlink:href="#Unbenannter_Verlauf_84"/><radialGradient id="Unbenannter_Verlauf_84-4" cx="-2991.9" cy="-1044.13" r="32.47" gradientTransform="translate(1482.08 -2628.38) rotate(-90)" xlink:href="#Unbenannter_Verlauf_84"/><radialGradient id="Unbenannter_Verlauf_84-5" cx="-3291.02" cy="-2422.01" r="32.47" gradientTransform="translate(920.16 -3579.2) rotate(-120)" xlink:href="#Unbenannter_Verlauf_84"/><radialGradient id="Unbenannter_Verlauf_84-6" cx="-2861.12" cy="-3764.85" r="32.47" gradientTransform="translate(-41.9 -4121.68) rotate(-150)" xlink:href="#Unbenannter_Verlauf_84"/><radialGradient id="Unbenannter_Verlauf_84-7" cx="-1817.39" cy="-4712.84" r="32.47" gradientTransform="translate(-1146.3 -4110.46) rotate(180)" xlink:href="#Unbenannter_Verlauf_84"/><radialGradient id="Unbenannter_Verlauf_84-8" cx="-439.5" cy="-5011.95" r="32.47" gradientTransform="translate(-2097.12 -3548.53) rotate(150)" xlink:href="#Unbenannter_Verlauf_84"/><radialGradient id="Unbenannter_Verlauf_84-9" cx="903.34" cy="-4582.05" r="32.47" gradientTransform="translate(-2639.6 -2586.48) rotate(120)" xlink:href="#Unbenannter_Verlauf_84"/><radialGradient id="Unbenannter_Verlauf_84-10" cx="1851.32" cy="-3538.32" r="32.47" gradientTransform="translate(-2628.38 -1482.08) rotate(90)" xlink:href="#Unbenannter_Verlauf_84"/><radialGradient id="Unbenannter_Verlauf_84-11" cx="2150.43" cy="-2160.44" r="32.47" gradientTransform="translate(-2066.45 -531.25) rotate(60)" xlink:href="#Unbenannter_Verlauf_84"/><radialGradient id="Unbenannter_Verlauf_84-12" cx="1720.53" cy="-817.6" r="32.47" gradientTransform="translate(-1104.4 11.23) rotate(30)" xlink:href="#Unbenannter_Verlauf_84"/><radialGradient id="Unbenannter_Verlauf_125" cx="673.95" cy="366.38" r="166.03" gradientUnits="userSpaceOnUse"><stop offset="0" stop-color="#d1625d"/><stop offset="0.55" stop-color="#c9433e"/><stop offset="1" stop-color="#c12722"/></radialGradient></defs><title>logo</title><rect class="cls-1" x="307.57" width="732.76" height="732.76" rx="184.49"/><path class="cls-2" d="M657.1,242.82C667,229.26,668.3,152,668.3,152h17s1.33,77.31,11.2,90.87Z"/><circle class="cls-3" cx="676.81" cy="130.38" r="32.47"/><path class="cls-2" d="M597.57,267.8c1.77-16.68-35.73-84.29-35.73-84.29L576.58,175s39.81,66.28,55.13,73.09Z"/><circle class="cls-4" cx="558.43" cy="160.57" r="32.47"/><path class="cls-2" d="M558.51,319.19c-6.8-15.32-73.09-55.13-73.09-55.13l8.51-14.74s67.62,37.5,84.29,35.73Z"/><circle class="cls-5" cx="471" cy="245.91" r="32.47"/><path class="cls-2" d="M550.38,383.23C536.83,373.37,459.52,372,459.52,372V355s77.31-1.33,90.86-11.2Z"/><circle class="cls-6" cx="437.95" cy="363.52" r="32.47"/><path class="cls-2" d="M575.36,442.76c-16.67-1.77-84.28,35.73-84.28,35.73l-8.51-14.74s66.28-39.81,73.08-55.13Z"/><circle class="cls-7" cx="468.14" cy="481.91" r="32.47"/><path class="cls-2" d="M626.76,481.82c-15.32,6.81-55.13,73.09-55.13,73.09l-14.74-8.51s37.5-67.62,35.73-84.29Z"/><circle class="cls-8" cx="553.48" cy="569.33" r="32.47"/><path class="cls-2" d="M690.8,490c-9.86,13.55-11.2,90.86-11.2,90.86h-17s-1.33-77.31-11.2-90.86Z"/><circle class="cls-9" cx="671.09" cy="602.38" r="32.47"/><path class="cls-2" d="M750.33,465c-1.77,16.67,35.73,84.29,35.73,84.29l-14.74,8.51s-39.81-66.29-55.13-73.09Z"/><circle class="cls-10" cx="789.47" cy="572.19" r="32.47"/><path class="cls-2" d="M789.39,413.57c6.81,15.32,73.09,55.13,73.09,55.13L854,483.44s-67.62-37.5-84.29-35.73Z"/><circle class="cls-11" cx="876.9" cy="486.86" r="32.47"/><path class="cls-2" d="M797.52,349.53c13.55,9.87,90.86,11.2,90.86,11.2v17s-77.31,1.33-90.86,11.2Z"/><circle class="cls-12" cx="909.95" cy="369.24" r="32.47"/><path class="cls-2" d="M772.54,290c16.67,1.77,84.28-35.73,84.28-35.73L865.34,269s-66.29,39.81-73.09,55.13Z"/><circle class="cls-13" cx="879.76" cy="250.86" r="32.47"/><path class="cls-2" d="M721.14,250.94c15.32-6.8,55.13-73.09,55.13-73.09L791,186.37s-37.5,67.61-35.73,84.28Z"/><circle class="cls-14" cx="794.42" cy="163.43" r="32.47"/><circle class="cls-15" cx="673.95" cy="366.38" r="166.03"/><path class="cls-16" d="M27.3,963.08a30.89,30.89,0,0,1-10.88-1.88A24.93,24.93,0,0,1,2.1,948,23.64,23.64,0,0,1,0,938a22.89,22.89,0,0,1,2.47-10.65,24.56,24.56,0,0,1,7-8.25,34.43,34.43,0,0,1,10.65-5.4,45,45,0,0,1,13.65-2,54.86,54.86,0,0,1,9.6.83,31.53,31.53,0,0,1,8.1,2.47v-3.6q0-13.65-15.75-13.65A35,35,0,0,0,23.4,900a59.08,59.08,0,0,0-12.3,6.52l-7-15a62.94,62.94,0,0,1,16.2-7.65,61.13,61.13,0,0,1,17.85-2.55q17.85,0,27.6,8.4t9.75,24.6v20.25q0,3.6,1.12,5a5.6,5.6,0,0,0,4,1.72v20.25a38.64,38.64,0,0,1-5.7,1c-1.7.15-3.25.23-4.65.23q-6.75,0-10.2-2.62a11.63,11.63,0,0,1-4.35-7.43l-.45-3.6a36,36,0,0,1-12.53,10.35A34.2,34.2,0,0,1,27.3,963.08Zm7.05-17.25a21.77,21.77,0,0,0,7.57-1.35,17.67,17.67,0,0,0,6.08-3.6q3.45-2.7,3.45-5.7v-7.5a40,40,0,0,0-6.82-1.88,39,39,0,0,0-6.83-.67,18.53,18.53,0,0,0-10.88,3,9.14,9.14,0,0,0-4.27,7.8,8.86,8.86,0,0,0,3.3,7.12A12.55,12.55,0,0,0,34.35,945.83Z"/><path class="cls-16" d="M116.83,963.08q-12.15,0-18.37-7.57t-6.23-22.28v-50.4h24V928q0,7.2,2.85,11a9.52,9.52,0,0,0,8.1,3.82,18.63,18.63,0,0,0,9.3-2.55q4.5-2.55,8-8.85v-48.6h24v51.75q0,3.6,1.13,5a5.58,5.58,0,0,0,4,1.72v20.25a48.32,48.32,0,0,1-5.85,1c-1.6.15-3.05.23-4.35.23q-12.9,0-14.7-10l-.45-4.8a32.81,32.81,0,0,1-13.42,11.48A42.58,42.58,0,0,1,116.83,963.08Z"/><path class="cls-16" d="M218.65,963.08a63,63,0,0,1-19.8-3.22,45.21,45.21,0,0,1-16.5-9.38l8.55-14.7a71.18,71.18,0,0,0,14,7.65,35.6,35.6,0,0,0,13.12,2.7,13.23,13.23,0,0,0,7.2-1.65,5.37,5.37,0,0,0,2.55-4.8,5.64,5.64,0,0,0-3.22-5q-3.22-1.87-11.33-4-8-2.25-13.42-4.35a37.92,37.92,0,0,1-8.93-4.65,15.1,15.1,0,0,1-5-5.85,18.71,18.71,0,0,1-1.5-7.8,24.52,24.52,0,0,1,9-19.35,31.35,31.35,0,0,1,10-5.4A38.89,38.89,0,0,1,216,881.33a55.61,55.61,0,0,1,16.58,2.4,41.43,41.43,0,0,1,14.92,8.7l-9.3,14.4a63.37,63.37,0,0,0-12-6.75A27.38,27.38,0,0,0,216,898a13,13,0,0,0-6.6,1.57,5.4,5.4,0,0,0-2.7,5,5.35,5.35,0,0,0,2.93,4.95q2.92,1.65,10.87,3.6a138.48,138.48,0,0,1,14.18,4.5,37.87,37.87,0,0,1,9.37,5,17,17,0,0,1,5.25,6.37,20.38,20.38,0,0,1,1.65,8.55q0,11.7-8.7,18.6T218.65,963.08Z"/><path class="cls-16" d="M293.32,961.88a32,32,0,0,1-14.25-3.15,33.6,33.6,0,0,1-11-8.55,39.88,39.88,0,0,1-7.13-12.6,46,46,0,0,1-2.55-15.45,46.77,46.77,0,0,1,2.7-16.12,40,40,0,0,1,7.5-12.9A34.47,34.47,0,0,1,295,881.33a31,31,0,0,1,15.68,3.83,29.28,29.28,0,0,1,10.72,10.57v-12.9h20.85v73.35a37.71,37.71,0,0,1-3.37,16.2,35.39,35.39,0,0,1-9.38,12.23,42.46,42.46,0,0,1-14.4,7.72,60,60,0,0,1-18.45,2.7q-12.75,0-21.75-4a46,46,0,0,1-15.75-11.7l12.9-13a31.45,31.45,0,0,0,10.8,7.88,33.17,33.17,0,0,0,13.8,2.92,27.9,27.9,0,0,0,8.25-1.2,20.08,20.08,0,0,0,6.9-3.67,17,17,0,0,0,4.73-6.46,23.81,23.81,0,0,0,1.72-9.52v-7.65a23.49,23.49,0,0,1-10.35,10A32.08,32.08,0,0,1,293.32,961.88Zm8.25-19a16.72,16.72,0,0,0,9.9-3.07,21,21,0,0,0,6.75-7.88v-16.5a21.69,21.69,0,0,0-7.35-10,17.33,17.33,0,0,0-10.5-3.68,15,15,0,0,0-7.12,1.72,17.85,17.85,0,0,0-5.55,4.66,21.61,21.61,0,0,0-3.6,6.75,24.72,24.72,0,0,0-1.28,7.87,21.83,21.83,0,0,0,1.43,8,19.34,19.34,0,0,0,4,6.37,18.31,18.31,0,0,0,5.93,4.2A18.05,18.05,0,0,0,301.57,942.83Z"/><path class="cls-16" d="M381.88,963.08A30.84,30.84,0,0,1,371,961.2,24.91,24.91,0,0,1,356.68,948a23.64,23.64,0,0,1-2.1-10,22.89,22.89,0,0,1,2.48-10.65,24.42,24.42,0,0,1,7-8.25,34.43,34.43,0,0,1,10.65-5.4,45,45,0,0,1,13.65-2,54.86,54.86,0,0,1,9.6.83,31.53,31.53,0,0,1,8.1,2.47v-3.6q0-13.65-15.75-13.65A35,35,0,0,0,378,900a59.08,59.08,0,0,0-12.3,6.52l-7.05-15a62.94,62.94,0,0,1,16.2-7.65,61.13,61.13,0,0,1,17.85-2.55q17.85,0,27.6,8.4t9.75,24.6v20.25q0,3.6,1.13,5a5.58,5.58,0,0,0,4,1.72v20.25a38.64,38.64,0,0,1-5.7,1c-1.7.15-3.25.23-4.65.23q-6.75,0-10.2-2.62a11.63,11.63,0,0,1-4.35-7.43l-.45-3.6a35.94,35.94,0,0,1-12.52,10.35A34.24,34.24,0,0,1,381.88,963.08Zm7.05-17.25a21.83,21.83,0,0,0,7.58-1.35,17.62,17.62,0,0,0,6.07-3.6q3.45-2.7,3.45-5.7v-7.5a39.7,39.7,0,0,0-6.82-1.88,38.89,38.89,0,0,0-6.83-.67,18.48,18.48,0,0,0-10.87,3,9.15,9.15,0,0,0-4.28,7.8,8.86,8.86,0,0,0,3.3,7.12A12.55,12.55,0,0,0,388.93,945.83Z"/><path class="cls-16" d="M524.17,961.58h-24V917.33q0-7.8-2.92-11.32a9.56,9.56,0,0,0-7.73-3.53,13.3,13.3,0,0,0-5.1,1,21.42,21.42,0,0,0-4.95,2.92,22.74,22.74,0,0,0-4.27,4.43,21.08,21.08,0,0,0-2.93,5.55v45.15h-24V882.83h21.6V896a28.59,28.59,0,0,1,12.3-10.87,41.72,41.72,0,0,1,18.3-3.83q7.65,0,12.3,2.78a19.93,19.93,0,0,1,7.2,7.19,28,28,0,0,1,3.38,9.68,66.91,66.91,0,0,1,.82,10.2Z"/><path class="cls-16" d="M571.48,961.88a32,32,0,0,1-14.25-3.15,33.6,33.6,0,0,1-11-8.55,39.69,39.69,0,0,1-7.13-12.6,46,46,0,0,1-2.55-15.45,46.77,46.77,0,0,1,2.7-16.12,40,40,0,0,1,7.5-12.9,34.47,34.47,0,0,1,26.4-11.78,31,31,0,0,1,15.68,3.83,29.35,29.35,0,0,1,10.72,10.57v-12.9h20.85v73.35a37.71,37.71,0,0,1-3.37,16.2,35.39,35.39,0,0,1-9.38,12.23,42.46,42.46,0,0,1-14.4,7.72,60,60,0,0,1-18.45,2.7Q562,995,553,991a46,46,0,0,1-15.75-11.7l12.9-13a31.45,31.45,0,0,0,10.8,7.88,33.17,33.17,0,0,0,13.8,2.92,27.9,27.9,0,0,0,8.25-1.2,20.08,20.08,0,0,0,6.9-3.67,17,17,0,0,0,4.73-6.46,24,24,0,0,0,1.72-9.52v-7.65a23.49,23.49,0,0,1-10.35,10A32.08,32.08,0,0,1,571.48,961.88Zm8.25-19a16.72,16.72,0,0,0,9.9-3.07,21,21,0,0,0,6.75-7.88v-16.5a21.69,21.69,0,0,0-7.35-10,17.33,17.33,0,0,0-10.5-3.68,14.93,14.93,0,0,0-7.12,1.72,17.74,17.74,0,0,0-5.55,4.66,21.41,21.41,0,0,0-3.6,6.75,24.72,24.72,0,0,0-1.28,7.87,22,22,0,0,0,1.43,8,19.34,19.34,0,0,0,4,6.37,18.31,18.31,0,0,0,5.93,4.2A18.05,18.05,0,0,0,579.73,942.83Z"/><path class="cls-16" d="M668.62,963.08a63,63,0,0,1-19.8-3.22,45.21,45.21,0,0,1-16.5-9.38l8.55-14.7a71.18,71.18,0,0,0,14,7.65,35.6,35.6,0,0,0,13.12,2.7,13.23,13.23,0,0,0,7.2-1.65,5.37,5.37,0,0,0,2.55-4.8,5.64,5.64,0,0,0-3.22-5q-3.24-1.87-11.33-4t-13.42-4.35a37.72,37.72,0,0,1-8.93-4.65,15.1,15.1,0,0,1-5-5.85,18.71,18.71,0,0,1-1.5-7.8,24.52,24.52,0,0,1,9-19.35,31.35,31.35,0,0,1,10-5.4,38.89,38.89,0,0,1,12.52-1.95,55.61,55.61,0,0,1,16.58,2.4,41.43,41.43,0,0,1,14.92,8.7l-9.3,14.4a63.37,63.37,0,0,0-12-6.75,27.38,27.38,0,0,0-10.2-2.1,13,13,0,0,0-6.6,1.57,5.4,5.4,0,0,0-2.7,5,5.35,5.35,0,0,0,2.93,4.95q2.93,1.65,10.87,3.6a138.48,138.48,0,0,1,14.18,4.5,37.87,37.87,0,0,1,9.37,5,17,17,0,0,1,5.25,6.37,20.38,20.38,0,0,1,1.65,8.55q0,11.7-8.7,18.6T668.62,963.08Z"/><path class="cls-16" d="M743.65,963.08a63,63,0,0,1-19.8-3.22,45.21,45.21,0,0,1-16.5-9.38l8.55-14.7a70.9,70.9,0,0,0,14,7.65,35.56,35.56,0,0,0,13.12,2.7,13.23,13.23,0,0,0,7.2-1.65,5.37,5.37,0,0,0,2.55-4.8q0-3.15-3.23-5t-11.32-4q-7.95-2.25-13.43-4.35a37.83,37.83,0,0,1-8.92-4.65,15.1,15.1,0,0,1-4.95-5.85,18.71,18.71,0,0,1-1.5-7.8,24.52,24.52,0,0,1,9-19.35,31.24,31.24,0,0,1,10-5.4A38.84,38.84,0,0,1,741,881.33a55.66,55.66,0,0,1,16.58,2.4,41.51,41.51,0,0,1,14.92,8.7l-9.3,14.4a63.37,63.37,0,0,0-12-6.75A27.38,27.38,0,0,0,741,898a13,13,0,0,0-6.6,1.57,5.84,5.84,0,0,0,.22,10q2.94,1.65,10.88,3.6a139.29,139.29,0,0,1,14.18,4.5,38.06,38.06,0,0,1,9.37,5,17,17,0,0,1,5.25,6.37,20.38,20.38,0,0,1,1.65,8.55q0,11.7-8.7,18.6T743.65,963.08Z"/><path class="cls-16" d="M837.77,963.08a31.06,31.06,0,0,1-15.6-3.75,25.85,25.85,0,0,1-10.2-10.5v44.7H788V882.83h20.85v12.75a31.61,31.61,0,0,1,10.88-10.5,30.62,30.62,0,0,1,15.52-3.75,33.85,33.85,0,0,1,14.63,3.15,35.72,35.72,0,0,1,11.55,8.63,40.38,40.38,0,0,1,7.65,12.9,45.2,45.2,0,0,1,2.77,16,50.5,50.5,0,0,1-2.55,16.35,40.85,40.85,0,0,1-7,13,32.64,32.64,0,0,1-10.8,8.63A30.09,30.09,0,0,1,837.77,963.08Zm-8.1-20.25a14.88,14.88,0,0,0,7.13-1.72,19,19,0,0,0,5.62-4.58,20.1,20.1,0,0,0,3.68-6.67,25.29,25.29,0,0,0,1.28-8,22.08,22.08,0,0,0-1.43-8,20.14,20.14,0,0,0-3.9-6.37,17.11,17.11,0,0,0-6-4.2,19.17,19.17,0,0,0-7.58-1.5,17.34,17.34,0,0,0-9.52,2.93,19,19,0,0,0-7,7.87v16.2a24.85,24.85,0,0,0,7.28,10A16,16,0,0,0,829.67,942.83Z"/><path class="cls-16" d="M922.6,963.08a46.75,46.75,0,0,1-17.78-3.22,39.53,39.53,0,0,1-13.35-8.78,37.57,37.57,0,0,1-8.32-12.82A41.4,41.4,0,0,1,880.3,923a45.38,45.38,0,0,1,2.85-16.12,39.12,39.12,0,0,1,8.25-13.28,38.49,38.49,0,0,1,13.27-9,46,46,0,0,1,17.93-3.3,45.46,45.46,0,0,1,17.85,3.3,39.2,39.2,0,0,1,13.2,8.92,37.84,37.84,0,0,1,8.17,13A43.38,43.38,0,0,1,964.6,922c0,1.4-.05,2.78-.15,4.13a29.39,29.39,0,0,1-.45,3.52H905.8q.6,7.95,5.77,12.07a18.34,18.34,0,0,0,11.78,4.13,21.55,21.55,0,0,0,10.12-2.55,13,13,0,0,0,6.53-6.9l20.4,5.7A36.71,36.71,0,0,1,946,957.23Q936.25,963.08,922.6,963.08Zm16.65-48.3q-.75-7.5-5.4-11.85a16.26,16.26,0,0,0-11.55-4.35A16.05,16.05,0,0,0,910.67,903a18.34,18.34,0,0,0-5.32,11.77Z"/><path class="cls-16" d="M1026.28,903.38a46,46,0,0,0-15.75,2.85q-7,2.7-10.2,8.1v47.25h-24V882.83h22v15.9a33.43,33.43,0,0,1,10.42-12.45,24,24,0,0,1,13.58-4.65h2.4a7.63,7.63,0,0,1,1.5.15Z"/><path class="cls-16" d="M1085.47,903.38a46,46,0,0,0-15.75,2.85q-7,2.7-10.2,8.1v47.25h-24V882.83h22v15.9A33.43,33.43,0,0,1,1068,886.28a24,24,0,0,1,13.58-4.65h2.4a7.71,7.71,0,0,1,1.5.15Z"/><path class="cls-16" d="M1133.18,963.08a46.7,46.7,0,0,1-17.77-3.22,39.53,39.53,0,0,1-13.35-8.78,37.45,37.45,0,0,1-8.33-12.82,41.4,41.4,0,0,1-2.85-15.23,45.38,45.38,0,0,1,2.85-16.12,39.12,39.12,0,0,1,8.25-13.28,38.53,38.53,0,0,1,13.28-9,46,46,0,0,1,17.92-3.3,45.46,45.46,0,0,1,17.85,3.3,39.2,39.2,0,0,1,13.2,8.92,38,38,0,0,1,8.18,13,43.37,43.37,0,0,1,2.77,15.45c0,1.4,0,2.78-.15,4.13a29.39,29.39,0,0,1-.45,3.52h-58.2q.6,7.95,5.78,12.07a18.32,18.32,0,0,0,11.77,4.13,21.62,21.62,0,0,0,10.13-2.55,13,13,0,0,0,6.52-6.9l20.4,5.7a36.71,36.71,0,0,1-14.4,15.15Q1146.83,963.08,1133.18,963.08Zm16.65-48.3q-.75-7.5-5.4-11.85a16.26,16.26,0,0,0-11.55-4.35,16,16,0,0,0-11.62,4.43,18.35,18.35,0,0,0-5.33,11.77Z"/><path class="cls-16" d="M1184.43,961.58V937.13h19.65v24.45Z"/><path class="cls-16" d="M1221,873.83V852.08h24v21.75Zm0,87.75V882.83h24v78.75Z"/><path class="cls-16" d="M1299.74,963.08a46,46,0,0,1-17.93-3.3,39,39,0,0,1-13.27-8.92,37.64,37.64,0,0,1-8.18-13.06,44.86,44.86,0,0,1,0-31,37.64,37.64,0,0,1,8.18-13.06,39.92,39.92,0,0,1,13.27-9,45.14,45.14,0,0,1,17.93-3.37,44.57,44.57,0,0,1,17.85,3.37,40.13,40.13,0,0,1,13.2,9,38.57,38.57,0,0,1,8.25,13.06,42.89,42.89,0,0,1,2.85,15.52,43.92,43.92,0,0,1-2.78,15.52,37.62,37.62,0,0,1-8.17,13.06,39.05,39.05,0,0,1-13.28,8.92A46,46,0,0,1,1299.74,963.08Zm-17.55-40.8q0,9.3,5,14.92a16,16,0,0,0,12.6,5.63,15.87,15.87,0,0,0,6.9-1.5,16.53,16.53,0,0,0,5.47-4.2,20.14,20.14,0,0,0,3.68-6.52,24.92,24.92,0,0,0,1.35-8.33q0-9.3-5-14.92a15.89,15.89,0,0,0-12.45-5.63,16.29,16.29,0,0,0-12.53,5.7,20.23,20.23,0,0,0-3.67,6.52A24.92,24.92,0,0,0,1282.19,922.28Z"/></svg>