<svg id="Ebene_1" data-name="Ebene 1" xmlns="http://www.w3.org/2000/svg" viewBox="0 0 28.74 28.74"><defs><style>.cls-1{fill:#ccc;}</style></defs><title>icon</title><path id="Pfad_14" data-name="Pfad 14" class="cls-1" d="M14.37,28.74A14.37,14.37,0,1,0,0,14.37H0A14.37,14.37,0,0,0,14.37,28.74ZM12.64,7.89a.53.53,0,0,1,.52-.52h2.42a.53.53,0,0,1,.52.52V9.82a.53.53,0,0,1-.52.52H13.16a.53.53,0,0,1-.52-.52Zm0,5a.54.54,0,0,1,.52-.52h2.42a.54.54,0,0,1,.52.52v8.27a.54.54,0,0,1-.52.52H13.16a.54.54,0,0,1-.52-.52Z"/></svg>