<svg id="Ebene_1" data-name="Ebene 1" xmlns="http://www.w3.org/2000/svg" xmlns:xlink="http://www.w3.org/1999/xlink" viewBox="0 0 732.76 732.76"><defs><style>.cls-1{fill:url(#Unbenannter_Verlauf_120);}.cls-2{fill:#c12722;}.cls-3{fill:url(#Unbenannter_Verlauf_84);}.cls-4{fill:url(#Unbenannter_Verlauf_84-2);}.cls-5{fill:url(#Unbenannter_Verlauf_84-3);}.cls-6{fill:url(#Unbenannter_Verlauf_84-4);}.cls-7{fill:url(#Unbenannter_Verlauf_84-5);}.cls-8{fill:url(#Unbenannter_Verlauf_84-6);}.cls-9{fill:url(#Unbenannter_Verlauf_84-7);}.cls-10{fill:url(#Unbenannter_Verlauf_84-8);}.cls-11{fill:url(#Unbenannter_Verlauf_84-9);}.cls-12{fill:url(#Unbenannter_Verlauf_84-10);}.cls-13{fill:url(#Unbenannter_Verlauf_84-11);}.cls-14{fill:url(#Unbenannter_Verlauf_84-12);}.cls-15{fill:url(#Unbenannter_Verlauf_125);}</style><linearGradient id="Unbenannter_Verlauf_120" x1="366.38" x2="366.38" y2="732.76" gradientUnits="userSpaceOnUse"><stop offset="0" stop-color="#9b9b9b"/><stop offset="1" stop-color="#828282"/></linearGradient><radialGradient id="Unbenannter_Verlauf_84" cx="369.24" cy="130.38" r="32.47" gradientUnits="userSpaceOnUse"><stop offset="0" stop-color="#c73d38"/><stop offset="1" stop-color="#c12722"/></radialGradient><radialGradient id="Unbenannter_Verlauf_84-2" cx="-847.25" cy="-172.84" r="32.47" gradientTransform="translate(1071.02 -113.37) rotate(-30)" xlink:href="#Unbenannter_Verlauf_84"/><radialGradient id="Unbenannter_Verlauf_84-3" cx="-1749.14" cy="-1043.69" r="32.47" gradientTransform="translate(1941.86 -747.05) rotate(-60)" xlink:href="#Unbenannter_Verlauf_84"/><radialGradient id="Unbenannter_Verlauf_84-4" cx="-2094.79" cy="-2248.81" r="32.47" gradientTransform="translate(2379.19 -1731.26) rotate(-90)" xlink:href="#Unbenannter_Verlauf_84"/><radialGradient id="Unbenannter_Verlauf_84-5" cx="-1791.56" cy="-3465.3" r="32.47" gradientTransform="translate(2265.83 -2802.28) rotate(-120)" xlink:href="#Unbenannter_Verlauf_84"/><radialGradient id="Unbenannter_Verlauf_84-6" cx="-920.72" cy="-4367.19" r="32.47" gradientTransform="translate(1632.14 -3673.13) rotate(-150)" xlink:href="#Unbenannter_Verlauf_84"/><radialGradient id="Unbenannter_Verlauf_84-7" cx="284.41" cy="-4712.84" r="32.47" gradientTransform="translate(647.93 -4110.46) rotate(180)" xlink:href="#Unbenannter_Verlauf_84"/><radialGradient id="Unbenannter_Verlauf_84-8" cx="1500.9" cy="-4409.61" r="32.47" gradientTransform="translate(-423.09 -3997.09) rotate(150)" xlink:href="#Unbenannter_Verlauf_84"/><radialGradient id="Unbenannter_Verlauf_84-9" cx="2402.79" cy="-3538.76" r="32.47" gradientTransform="translate(-1293.93 -3363.41) rotate(120)" xlink:href="#Unbenannter_Verlauf_84"/><radialGradient id="Unbenannter_Verlauf_84-10" cx="2748.43" cy="-2333.64" r="32.47" gradientTransform="translate(-1731.26 -2379.19) rotate(90)" xlink:href="#Unbenannter_Verlauf_84"/><radialGradient id="Unbenannter_Verlauf_84-11" cx="2445.21" cy="-1117.15" r="32.47" gradientTransform="translate(-1617.9 -1308.18) rotate(60)" xlink:href="#Unbenannter_Verlauf_84"/><radialGradient id="Unbenannter_Verlauf_84-12" cx="1574.36" cy="-215.26" r="32.47" gradientTransform="translate(-984.21 -437.33) rotate(30)" xlink:href="#Unbenannter_Verlauf_84"/><radialGradient id="Unbenannter_Verlauf_125" cx="366.38" cy="366.38" r="166.03" gradientUnits="userSpaceOnUse"><stop offset="0" stop-color="#d1625d"/><stop offset="0.55" stop-color="#c9433e"/><stop offset="1" stop-color="#c12722"/></radialGradient></defs><title>logo</title><rect class="cls-1" width="732.76" height="732.76"/><path class="cls-2" d="M349.53,242.82c9.87-13.56,11.2-90.87,11.2-90.87h17s1.33,77.31,11.2,90.87Z"/><circle class="cls-3" cx="369.24" cy="130.38" r="32.47"/><path class="cls-2" d="M290,267.8c1.77-16.68-35.73-84.29-35.73-84.29L269,175s39.81,66.28,55.13,73.09Z"/><circle class="cls-4" cx="250.86" cy="160.57" r="32.47"/><path class="cls-2" d="M250.94,319.19c-6.8-15.32-73.09-55.13-73.09-55.13l8.52-14.74s67.61,37.5,84.28,35.73Z"/><circle class="cls-5" cx="163.43" cy="245.91" r="32.47"/><path class="cls-2" d="M242.82,383.23C229.26,373.37,152,372,152,372V355s77.31-1.33,90.87-11.2Z"/><circle class="cls-6" cx="130.38" cy="363.52" r="32.47"/><path class="cls-2" d="M267.8,442.76c-16.68-1.77-84.29,35.73-84.29,35.73L175,463.75s66.28-39.81,73.09-55.13Z"/><circle class="cls-7" cx="160.57" cy="481.91" r="32.47"/><path class="cls-2" d="M319.19,481.82c-15.32,6.81-55.13,73.09-55.13,73.09l-14.74-8.51s37.5-67.62,35.73-84.29Z"/><circle class="cls-8" cx="245.91" cy="569.33" r="32.47"/><path class="cls-2" d="M383.23,490C373.37,503.5,372,580.81,372,580.81H355s-1.33-77.31-11.2-90.86Z"/><circle class="cls-9" cx="363.52" cy="602.38" r="32.47"/><path class="cls-2" d="M442.76,465c-1.77,16.67,35.73,84.29,35.73,84.29l-14.74,8.51s-39.81-66.29-55.13-73.09Z"/><circle class="cls-10" cx="481.91" cy="572.19" r="32.47"/><path class="cls-2" d="M481.82,413.57c6.81,15.32,73.09,55.13,73.09,55.13l-8.51,14.74s-67.62-37.5-84.29-35.73Z"/><circle class="cls-11" cx="569.33" cy="486.86" r="32.47"/><path class="cls-2" d="M490,349.53c13.55,9.87,90.86,11.2,90.86,11.2v17S503.5,379.08,490,389Z"/><circle class="cls-12" cx="602.38" cy="369.24" r="32.47"/><path class="cls-2" d="M465,290c16.67,1.77,84.29-35.73,84.29-35.73L557.77,269s-66.29,39.81-73.09,55.13Z"/><circle class="cls-13" cx="572.19" cy="250.86" r="32.47"/><path class="cls-2" d="M413.57,250.94c15.32-6.8,55.13-73.09,55.13-73.09l14.74,8.52s-37.5,67.61-35.73,84.28Z"/><circle class="cls-14" cx="486.86" cy="163.43" r="32.47"/><circle class="cls-15" cx="366.38" cy="366.38" r="166.03"/></svg>